<svg width="250" height="200" viewBox="0 0 250 200" fill="none" xmlns="http://www.w3.org/2000/svg">
<path fill-rule="evenodd" clip-rule="evenodd" d="M207 65C210.866 65 214 68.134 214 72C214 75.866 210.866 79 207 79H167C170.866 79 174 82.134 174 86C174 89.866 170.866 93 167 93H189C192.866 93 196 96.134 196 100C196 103.866 192.866 107 189 107H178.826C173.952 107 170 110.134 170 114C170 116.577 172 118.911 176 121C179.866 121 183 124.134 183 128C183 131.866 179.866 135 176 135H93C89.134 135 86 131.866 86 128C86 124.134 89.134 121 93 121H54C50.134 121 47 117.866 47 114C47 110.134 50.134 107 54 107H94C97.866 107 101 103.866 101 100C101 96.134 97.866 93 94 93H69C65.134 93 62 89.866 62 86C62 82.134 65.134 79 69 79H109C105.134 79 102 75.866 102 72C102 68.134 105.134 65 109 65H207ZM207 93C210.866 93 214 96.134 214 100C214 103.866 210.866 107 207 107C203.134 107 200 103.866 200 100C200 96.134 203.134 93 207 93Z" fill="#E0E0E0"/>
<path fill-rule="evenodd" clip-rule="evenodd" d="M153.672 64.0002L162.974 131.843L163.809 138.649C164.079 140.842 162.519 142.838 160.327 143.107L101.767 150.297C99.5739 150.566 97.5781 149.007 97.3089 146.814L88.2931 73.3869C88.1585 72.2906 88.9381 71.2927 90.0345 71.1581C90.0414 71.1573 90.0483 71.1565 90.0553 71.1557L94.9136 70.6107M98.8422 70.17L103.429 69.6555L98.8422 70.17Z" fill="white"/>
<path d="M154.91 63.8304C154.817 63.1464 154.186 62.668 153.502 62.7618C152.818 62.8556 152.34 63.486 152.433 64.17L154.91 63.8304ZM162.974 131.843L164.214 131.691C164.214 131.685 164.213 131.679 164.212 131.673L162.974 131.843ZM163.809 138.649L165.05 138.497L163.809 138.649ZM160.327 143.107L160.479 144.348L160.327 143.107ZM101.767 150.297L101.919 151.538L101.767 150.297ZM97.3089 146.814L98.5496 146.662L97.3089 146.814ZM88.2931 73.3869L89.5338 73.2346L88.2931 73.3869ZM90.0553 71.1557L90.1946 72.3979L90.0553 71.1557ZM95.053 71.8529C95.739 71.7759 96.2328 71.1574 96.1558 70.4713C96.0789 69.7853 95.4603 69.2915 94.7743 69.3685L95.053 71.8529ZM98.7028 68.9278C98.0168 69.0048 97.523 69.6233 97.5999 70.3094C97.6769 70.9954 98.2954 71.4892 98.9815 71.4122L98.7028 68.9278ZM103.569 70.8977C104.255 70.8207 104.748 70.2022 104.671 69.5161C104.594 68.8301 103.976 68.3363 103.29 68.4133L103.569 70.8977ZM152.433 64.17L161.735 132.013L164.212 131.673L154.91 63.8304L152.433 64.17ZM161.733 131.995L162.569 138.802L165.05 138.497L164.214 131.691L161.733 131.995ZM162.569 138.802C162.754 140.309 161.682 141.681 160.174 141.866L160.479 144.348C163.357 143.994 165.404 141.375 165.05 138.497L162.569 138.802ZM160.174 141.866L101.614 149.057L101.919 151.538L160.479 144.348L160.174 141.866ZM101.614 149.057C100.107 149.242 98.7347 148.17 98.5496 146.662L96.0682 146.967C96.4216 149.845 99.041 151.891 101.919 151.538L101.614 149.057ZM98.5496 146.662L89.5338 73.2346L87.0524 73.5393L96.0682 146.967L98.5496 146.662ZM89.5338 73.2346C89.4833 72.8235 89.7757 72.4493 90.1868 72.3988L89.8821 69.9174C88.1006 70.1362 86.8337 71.7577 87.0524 73.5393L89.5338 73.2346ZM90.1868 72.3988C90.1894 72.3985 90.192 72.3982 90.1946 72.3979L89.9159 69.9135C89.9046 69.9147 89.8934 69.9161 89.8821 69.9174L90.1868 72.3988ZM90.1946 72.3979L95.053 71.8529L94.7743 69.3685L89.9159 69.9135L90.1946 72.3979ZM98.9815 71.4122L103.569 70.8977L103.29 68.4133L98.7028 68.9278L98.9815 71.4122Z" fill="#757575"/>
<path fill-rule="evenodd" clip-rule="evenodd" d="M151.14 68.2691L159.56 129.753L160.317 135.921C160.561 137.908 159.167 139.714 157.203 139.956L104.761 146.395C102.798 146.636 101.008 145.22 100.764 143.233L92.6141 76.8567C92.4795 75.7603 93.2592 74.7625 94.3555 74.6278L100.843 73.8313" fill="#FAFAFA"/>
<path d="M110.672 51.25H156.229C156.958 51.25 157.657 51.5393 158.173 52.0547L171.616 65.4902C172.132 66.0059 172.422 66.7053 172.422 67.4346V130C172.422 131.519 171.191 132.75 169.672 132.75H110.672C109.153 132.75 107.922 131.519 107.922 130V54C107.922 52.4812 109.153 51.25 110.672 51.25Z" fill="white" stroke="#757575" stroke-width="2.5"/>
<path d="M156.672 52.4028V64C156.672 65.6569 158.015 67 159.672 67H167.605" stroke="#757575" stroke-width="2.5" stroke-linecap="round" stroke-linejoin="round"/>
<path d="M118 118H144M118 67H144H118ZM118 79H161H118ZM118 92H161H118ZM118 105H161H118Z" stroke="#757575" stroke-width="2.5" stroke-linecap="round" stroke-linejoin="round"/>
</svg>
